<svg id="Layer_1" data-name="Layer 1" xmlns="http://www.w3.org/2000/svg" viewBox="0 0 627.76 200"><defs><style>.cls-1{fill:#fff;}.cls-2{fill:#212121;}</style></defs><title>true_logo</title><g id="Page-1"><g id="Artboard"><g id="true_logo-copy" data-name="true logo-copy"><rect id="Rectangle-1" class="cls-1" x="222.98" y="41.67" width="200" height="158.33" rx="16.67" ry="16.67"/><path id="Oval-1" class="cls-1" d="M323,66.67h0a21.21,21.21,0,1,0-21.21-21.21A21.21,21.21,0,0,0,323,66.67Zm0,24.24h0a45.45,45.45,0,1,1,45.45-45.45A45.45,45.45,0,0,1,323,90.91Z"/><path id="Oval-1-2" data-name="Oval-1" class="cls-2" d="M357.62,35.42a36.07,36.07,0,0,0-70.16,3.73,2.73,2.73,0,0,0,5.37.95A30.61,30.61,0,0,1,353.1,40a2.73,2.73,0,1,0,5.37-1A36,36,0,0,0,357.62,35.42Z"/><polyline id="Fill-2" class="cls-2" points="259.5 120.29 259.5 187.53 247.17 187.53 247.17 120.29 234.07 120.29 234.07 109.17 272.71 109.17 272.71 120.29 259.5 120.29"/><path id="Fill-3" class="cls-2" d="M309.08,187.54,298.84,155.4h-6.93v32.14H279.58V109.17h19.81c14.31,0,20,6.93,20,23.11,0,9.69-2,16.62-9.13,20.47L322,187.54Zm-9.57-67.25h-7.59v24h7.59c6.6,0,7.59-5.5,7.59-12s-1-12-7.59-12Z"/><polygon id="Fill-4" class="cls-2" points="329.48 109.17 341.81 109.17 341.81 187.53 329.48 187.53 329.48 109.17"/><path id="Fill-5" class="cls-2" d="M371.63,156.94h-7.37v30.6H351.92V109.17h19.7c14.2,0,20.14,7.37,20.14,23.77,0,15.85-5.28,24-20.14,24Zm.22-36.65h-7.59v25.53h7.59c6.6,0,7.59-5.83,7.59-12.77s-1-12.77-7.59-12.77Z"/><path id="Fill-6" class="cls-2" d="M406.13,188a7.66,7.66,0,0,1-7.7-7.7,7.71,7.71,0,1,1,15.41,0,7.66,7.66,0,0,1-7.71,7.7Zm-5.83-78.8H412v56.35H400.3Z"/><path id="Fill-7" class="cls-2" d="M252,93.6a10.9,10.9,0,0,1-15.94,0c-3.06-3.46-3-9.47-3-17.55S233,62,236.1,58.49a10.9,10.9,0,0,1,15.94,0C255.1,62,255,68,255,76s.06,14.09-3,17.55Zm-4.85-31.18a3.41,3.41,0,0,0-3.12-1.56A3.31,3.31,0,0,0,241,62.42c-1.21,2-1.44,6.12-1.44,13.63s.23,11.66,1.44,13.63a3.31,3.31,0,0,0,3.06,1.56,3.41,3.41,0,0,0,3.12-1.56c1.21-2,1.39-6.12,1.39-13.63s-.17-11.66-1.39-13.63Z"/><polyline id="Fill-8" class="cls-2" points="277.57 96.6 267.87 72.18 267.87 96.6 261.4 96.6 261.4 55.49 267.17 55.49 276.82 79.91 276.82 55.49 283.28 55.49 283.28 96.6 277.57 96.6"/><polyline id="Fill-9" class="cls-2" points="290.25 96.6 290.25 55.49 307.52 55.49 307.52 61.32 296.72 61.32 296.72 72.98 306.02 72.98 306.02 78.82 296.72 78.82 296.72 90.77 307.52 90.77 307.52 96.6 290.25 96.6"/><polyline id="Fill-10" class="cls-2" points="336.22 61.32 336.22 96.6 329.76 96.6 329.76 61.32 322.88 61.32 322.88 55.49 343.15 55.49 343.15 61.32 336.22 61.32"/><polyline id="Fill-11" class="cls-2" points="379.91 96.6 373.16 96.6 367.27 65.36 361.44 96.6 354.68 96.6 346.88 55.49 353.99 55.49 358.03 86.67 363.69 55.49 370.85 55.49 376.56 86.67 380.55 55.49 387.65 55.49 379.91 96.6"/><path id="Fill-12" class="cls-2" d="M409.9,93.6a10.89,10.89,0,0,1-15.94,0c-3.06-3.46-3-9.47-3-17.55S390.9,62,394,58.49a10.9,10.9,0,0,1,15.94,0C413,62,412.9,68,412.9,76s.06,14.09-3,17.55ZM405,62.42a3.41,3.41,0,0,0-3.12-1.56,3.31,3.31,0,0,0-3.06,1.56c-1.21,2-1.44,6.12-1.44,13.63s.23,11.66,1.44,13.63a3.31,3.31,0,0,0,3.06,1.56A3.41,3.41,0,0,0,405,89.67c1.21-2,1.39-6.12,1.39-13.63s-.17-11.66-1.39-13.63Z"/><polygon id="Path-2" class="cls-2" points="348.18 36.78 357.8 46.58 361.52 33.33 348.18 36.78"/></g></g></g><g id="Page-1-2" data-name="Page-1"><g id="Artboard-2" data-name="Artboard"><g id="true_logo" data-name="true logo"><rect id="Rectangle-1-2" data-name="Rectangle-1" class="cls-2" y="41.67" width="200" height="158.33" rx="16.67" ry="16.67"/><path id="Oval-1-3" data-name="Oval-1" class="cls-2" d="M100,66.67h0A21.21,21.21,0,1,0,78.79,45.45,21.21,21.21,0,0,0,100,66.67Zm0,24.24h0a45.45,45.45,0,1,1,45.45-45.45A45.45,45.45,0,0,1,100,90.91Z"/><path id="Oval-1-4" data-name="Oval-1" class="cls-1" d="M134.65,35.42a36.07,36.07,0,0,0-70.16,3.73,2.73,2.73,0,0,0,5.37.95A30.61,30.61,0,0,1,130.13,40a2.73,2.73,0,1,0,5.37-1A36,36,0,0,0,134.65,35.42Z"/><polyline id="Fill-2-2" data-name="Fill-2" class="cls-1" points="36.52 120.29 36.52 187.53 24.2 187.53 24.2 120.29 11.1 120.29 11.1 109.17 49.73 109.17 49.73 120.29 36.52 120.29"/><path id="Fill-3-2" data-name="Fill-3" class="cls-1" d="M86.1,187.54,75.87,155.4H68.93v32.14H56.61V109.17H76.42c14.31,0,20,6.93,20,23.11,0,9.69-2,16.62-9.13,20.47L99,187.54Zm-9.57-67.25H68.93v24h7.59c6.6,0,7.59-5.5,7.59-12s-1-12-7.59-12Z"/><polygon id="Fill-4-2" data-name="Fill-4" class="cls-1" points="106.51 109.17 118.83 109.17 118.83 187.53 106.51 187.53 106.51 109.17"/><path id="Fill-5-2" data-name="Fill-5" class="cls-1" d="M148.65,156.94h-7.37v30.6H128.95V109.17h19.7c14.2,0,20.14,7.37,20.14,23.77,0,15.85-5.28,24-20.14,24Zm.22-36.65h-7.59v25.53h7.59c6.6,0,7.59-5.83,7.59-12.77s-1-12.77-7.59-12.77Z"/><path id="Fill-6-2" data-name="Fill-6" class="cls-1" d="M183.16,188a7.66,7.66,0,0,1-7.7-7.7,7.71,7.71,0,1,1,15.41,0,7.66,7.66,0,0,1-7.71,7.7Zm-5.83-78.8H189v56.35H177.33Z"/><path id="Fill-7-2" data-name="Fill-7" class="cls-1" d="M29.06,93.6a9.82,9.82,0,0,1-8,3.46,9.81,9.81,0,0,1-8-3.46c-3.06-3.46-3-9.47-3-17.55s-.06-14.09,3-17.55a9.81,9.81,0,0,1,8-3.46,9.82,9.82,0,0,1,8,3.46c3.06,3.47,3,9.47,3,17.55s.06,14.09-3,17.55ZM24.21,62.42a3.41,3.41,0,0,0-3.12-1.56A3.31,3.31,0,0,0,18,62.42c-1.21,2-1.44,6.12-1.44,13.63S16.82,87.71,18,89.67a3.31,3.31,0,0,0,3.06,1.56,3.41,3.41,0,0,0,3.12-1.56c1.21-2,1.39-6.12,1.39-13.63s-.17-11.66-1.39-13.63Z"/><polyline id="Fill-8-2" data-name="Fill-8" class="cls-1" points="54.59 96.6 44.89 72.18 44.89 96.6 38.42 96.6 38.42 55.49 44.2 55.49 53.84 79.91 53.84 55.49 60.31 55.49 60.31 96.6 54.59 96.6"/><polyline id="Fill-9-2" data-name="Fill-9" class="cls-1" points="67.27 96.6 67.27 55.49 84.55 55.49 84.55 61.32 73.74 61.32 73.74 72.98 83.05 72.98 83.05 78.82 73.74 78.82 73.74 90.77 84.55 90.77 84.55 96.6 67.27 96.6"/><polyline id="Fill-10-2" data-name="Fill-10" class="cls-1" points="113.25 61.32 113.25 96.6 106.78 96.6 106.78 61.32 99.91 61.32 99.91 55.49 120.18 55.49 120.18 61.32 113.25 61.32"/><polyline id="Fill-11-2" data-name="Fill-11" class="cls-1" points="156.94 96.6 150.18 96.6 144.29 65.36 138.46 96.6 131.7 96.6 123.91 55.49 131.01 55.49 135.05 86.67 140.71 55.49 147.87 55.49 153.59 86.67 157.57 55.49 164.67 55.49 156.94 96.6"/><path id="Fill-12-2" data-name="Fill-12" class="cls-1" d="M186.92,93.6a10.89,10.89,0,0,1-15.94,0c-3.06-3.46-3-9.47-3-17.55s-.06-14.09,3-17.55a10.9,10.9,0,0,1,15.94,0c3.06,3.46,3,9.47,3,17.55s.06,14.09-3,17.55Zm-4.85-31.18A3.41,3.41,0,0,0,179,60.86a3.31,3.31,0,0,0-3.06,1.56c-1.21,2-1.44,6.12-1.44,13.63s.23,11.66,1.44,13.63A3.31,3.31,0,0,0,179,91.23a3.41,3.41,0,0,0,3.12-1.56c1.21-2,1.39-6.12,1.39-13.63s-.17-11.66-1.39-13.63Z"/><polygon id="Path-2-2" data-name="Path-2" class="cls-1" points="125.21 36.78 134.83 46.58 138.54 33.33 125.21 36.78"/></g></g></g><g id="Page-1-3" data-name="Page-1"><g id="Artboard-3" data-name="Artboard"><g id="true_logo-copy-2" data-name="true logo-copy"><path id="Oval-1-2-2" data-name="Oval-1-2" class="cls-2" d="M571.54,26a36.07,36.07,0,0,0-70.16,3.73,2.73,2.73,0,0,0,5.37,1,30.61,30.61,0,0,1,60.27-.1,2.73,2.73,0,1,0,5.37-1h0A36,36,0,0,0,571.54,26Z"/><polyline id="Fill-2-3" data-name="Fill-2" class="cls-2" points="473.41 110.91 473.41 178.15 461.09 178.15 461.09 110.91 447.99 110.91 447.99 99.79 486.62 99.79 486.62 110.91 473.41 110.91"/><path id="Fill-3-3" data-name="Fill-3" class="cls-2" d="M523,178.16,512.76,146h-6.94v32.14H493.5V99.79h19.81c14.31,0,20,6.93,20,23.11,0,9.69-2,16.62-9.13,20.47l11.71,34.79Zm-9.57-67.25h-7.6v24h7.59c6.6,0,7.59-5.5,7.59-12s-1-12-7.59-12Z"/><polygon id="Fill-4-3" data-name="Fill-4" class="cls-2" points="543.4 99.79 555.72 99.79 555.72 178.15 543.4 178.15 543.4 99.79"/><path id="Fill-5-3" data-name="Fill-5" class="cls-2" d="M585.54,147.56h-7.37v30.6H565.84V99.79h19.7c14.2,0,20.14,7.37,20.14,23.77C605.68,139.41,600.4,147.56,585.54,147.56Zm.22-36.65h-7.59v25.53h7.59c6.6,0,7.59-5.83,7.59-12.77s-1-12.77-7.59-12.77Z"/><path id="Fill-6-3" data-name="Fill-6" class="cls-2" d="M620,178.62a7.66,7.66,0,0,1-7.7-7.62s0-.05,0-.08a7.71,7.71,0,1,1,15.41-.56q0,.28,0,.56a7.66,7.66,0,0,1-7.62,7.7Zm-5.83-78.8h11.67v56.35H614.22Z"/><path id="Fill-7-3" data-name="Fill-7" class="cls-2" d="M465.95,84.22a11,11,0,0,1-16,0c-3.06-3.46-3-9.47-3-17.55s-.06-14.09,3-17.55a11,11,0,0,1,16,0c3.06,3.47,3,9.47,3,17.55S469,80.76,465.95,84.22ZM461.1,53A3.41,3.41,0,0,0,458,51.48,3.31,3.31,0,0,0,454.89,53c-1.21,2-1.44,6.12-1.44,13.63s.26,11.66,1.44,13.62a3.31,3.31,0,0,0,3.06,1.56,3.41,3.41,0,0,0,3.12-1.56c1.21-2,1.39-6.12,1.39-13.63S462.29,55,461.07,53Z"/><polyline id="Fill-8-3" data-name="Fill-8" class="cls-2" points="491.48 87.22 481.78 62.8 481.78 87.22 475.31 87.22 475.31 46.11 481.09 46.11 490.73 70.53 490.73 46.11 497.2 46.11 497.2 87.22 491.48 87.22"/><polyline id="Fill-9-3" data-name="Fill-9" class="cls-2" points="504.16 87.22 504.16 46.11 521.44 46.11 521.44 51.94 510.63 51.94 510.63 63.6 519.94 63.6 519.94 69.44 510.63 69.44 510.63 81.39 521.44 81.39 521.44 87.22 504.16 87.22"/><polyline id="Fill-10-3" data-name="Fill-10" class="cls-2" points="550.14 51.94 550.14 87.22 543.67 87.22 543.67 51.94 536.8 51.94 536.8 46.11 557.07 46.11 557.07 51.94 550.14 51.94"/><polyline id="Fill-11-3" data-name="Fill-11" class="cls-2" points="593.83 87.22 587.07 87.22 581.18 55.98 575.35 87.22 568.59 87.22 560.8 46.11 567.9 46.11 571.94 77.29 577.6 46.11 584.76 46.11 590.48 77.29 594.46 46.11 601.56 46.11 593.83 87.22"/><path id="Fill-12-3" data-name="Fill-12" class="cls-2" d="M623.81,84.22a10.89,10.89,0,0,1-15.39.55q-.28-.26-.55-.55c-3.06-3.46-3-9.47-3-17.55s-.06-14.09,3-17.55a10.9,10.9,0,0,1,15.41-.53q.28.26.53.53c3.06,3.46,3,9.47,3,17.55S626.87,80.76,623.81,84.22ZM619,53a3.41,3.41,0,0,0-3.07-1.56A3.31,3.31,0,0,0,612.83,53c-1.21,2-1.44,6.12-1.44,13.63s.23,11.66,1.44,13.63a3.31,3.31,0,0,0,3.06,1.55A3.41,3.41,0,0,0,619,80.29c1.21-2,1.39-6.12,1.39-13.63S620.23,55,619,53Z"/><polygon id="Path-2-3" data-name="Path-2" class="cls-2" points="562.1 27.4 571.72 37.2 575.43 23.95 562.1 27.4"/></g></g></g></svg>